<svg width="746" height="166" viewBox="0 0 746 166" fill="none" xmlns="http://www.w3.org/2000/svg">
<g filter="url(#filter0_d_3_10)">
<path d="M10.8 139.2C9.33333 135.6 8.26667 131.467 7.6 126.8C6.93333 122 6.6 115.333 6.6 106.8C6.6 98.2667 8.2 86.7333 11.4 72.2H2.4C0.8 72.2 2.83122e-07 71.5333 2.83122e-07 70.2C2.83122e-07 67 0.266667 64.4 0.8 62.4C1.46667 60.2667 2.93333 57.8667 5.2 55.2H10C11.8667 55.2 13.8667 55.1333 16 55C22.4 34.4667 28.9333 24.2 35.6 24.2C40.9333 24.3333 44.6667 27.7333 46.8 34.4C47.3333 36.2667 47.9333 38.2667 48.6 40.4L40.4 54.8C49.7333 55.0667 55.6 55.2 58 55.2C60.5333 55.2 61.8667 55.4667 62 56C62.2667 56.4 62.4 57.0667 62.4 58C62.4 60.4 61.8 63.4 60.6 67C59.5333 70.6 58.2667 72.3333 56.8 72.2L36.8 71.2C34 87.4667 32.6 100.933 32.6 111.6C32.6 122.267 34.1333 127.6 37.2 127.6C39.7333 127.6 44.3333 125.533 51 121.4C57.6667 117.133 62.4667 113.067 65.4 109.2C68.3333 105.333 70.7333 103.4 72.6 103.4C74.4667 103.4 75.4 105.667 75.4 110.2C75.4 114.733 73.8 119.4 70.6 124.2C67.4 128.867 63.3333 133.2 58.4 137.2C53.6 141.067 48.2 144.267 42.2 146.8C36.3333 149.333 31.2 150.6 26.8 150.6C22.4 150.6 19 149.6 16.6 147.6C14.3333 145.467 12.4 142.667 10.8 139.2ZM188.277 102.8C190.677 102.8 191.877 105.867 191.877 112C191.877 115.333 190.477 119.4 187.677 124.2C184.877 128.867 181.21 133.2 176.677 137.2C172.277 141.067 167.343 144.267 161.877 146.8C156.41 149.333 151.077 150.6 145.877 150.6C138.81 150.6 134.077 144.4 131.677 132C128.21 137.733 123.677 142.467 118.077 146.2C112.477 149.8 104.943 151.6 95.4766 151.6C86.1432 151.6 78.6099 148.667 72.8766 142.8C67.1432 136.933 64.3432 129.8 64.4766 121.4C64.4766 98.7333 72.0099 80.8667 87.0766 67.8C93.4766 62.3333 99.4099 58.7333 104.877 57C110.477 55.2667 116.343 54.4 122.477 54.4C128.61 54.4 133.61 55.4667 137.477 57.6C139.343 53.7333 141.477 51.8 143.877 51.8C148.543 51.8 152.943 53.8667 157.077 58C161.343 62 163.477 65.8 163.477 69.4C161.61 73.8 158.877 79.0667 155.277 85.2C154.21 91.3333 153.677 99.9333 153.677 111C153.677 122.067 155.077 127.6 157.877 127.6C161.343 127.6 169.743 120.667 183.077 106.8C185.477 104.133 187.21 102.8 188.277 102.8ZM93.8766 114.8C93.8766 125.067 97.6766 130.2 105.277 130.2C113.41 130.067 120.143 125.733 125.477 117.2C127.343 114.267 128.877 110.667 130.077 106.4C130.077 91.4667 131.41 78.6667 134.077 68C123.277 70.1333 113.877 75.3333 105.877 83.6C97.8766 91.8667 93.8766 102.267 93.8766 114.8ZM227.483 53.2C236.416 53.0667 243.083 54.7333 247.483 58.2C251.883 61.5333 254.083 66.4 254.083 72.8C254.083 79.0667 252.149 84.4667 248.283 89C244.549 93.4 239.949 96.5333 234.483 98.4C238.349 102.4 241.816 106.467 244.883 110.6C248.083 114.733 249.683 119.067 249.683 123.6C249.683 132.533 246.149 139.467 239.083 144.4C232.016 149.2 222.149 151.6 209.483 151.6C196.949 151.6 187.549 149.133 181.283 144.2C175.016 139.133 171.883 133.467 171.883 127.2C171.883 120.8 173.416 115 176.483 109.8C179.683 104.6 183.083 102 186.683 102C188.816 102 190.349 102.8 191.283 104.4C192.216 105.867 193.949 110.267 196.483 117.6C197.416 120.267 198.949 122.8 201.083 125.2C206.016 130.667 213.816 133.4 224.483 133.4C222.883 128.333 220.283 124 216.683 120.4C213.216 116.667 209.749 113.067 206.283 109.6C202.816 106.133 199.749 102.467 197.083 98.6C194.416 94.6 193.083 89.9333 193.083 84.6C193.083 75 196.683 67.2 203.883 61.2C210.683 55.8667 218.549 53.2 227.483 53.2ZM226.683 90.2C232.016 84.4667 234.683 79.8667 234.683 76.4C234.683 74.8 234.083 73.4 232.883 72.2C231.816 70.8667 230.216 70.2 228.083 70.2C225.949 70.2 223.883 70.4667 221.883 71C220.016 71.5333 218.483 71.9333 217.283 72.2C217.283 77.2667 220.416 83.2667 226.683 90.2ZM270.956 139.2C269.49 135.6 268.423 131.467 267.756 126.8C267.09 122 266.756 115.333 266.756 106.8C266.756 98.2667 268.356 86.7333 271.556 72.2H262.556C260.956 72.2 260.156 71.5333 260.156 70.2C260.156 67 260.423 64.4 260.956 62.4C261.623 60.2667 263.09 57.8667 265.356 55.2H270.156C272.023 55.2 274.023 55.1333 276.156 55C282.556 34.4667 289.09 24.2 295.756 24.2C301.09 24.3333 304.823 27.7333 306.956 34.4C307.49 36.2667 308.09 38.2667 308.756 40.4L300.556 54.8C309.89 55.0667 315.756 55.2 318.156 55.2C320.69 55.2 322.023 55.4667 322.156 56C322.423 56.4 322.556 57.0667 322.556 58C322.556 60.4 321.956 63.4 320.756 67C319.69 70.6 318.423 72.3333 316.956 72.2L296.956 71.2C294.156 87.4667 292.756 100.933 292.756 111.6C292.756 122.267 294.29 127.6 297.356 127.6C299.89 127.6 304.49 125.533 311.156 121.4C317.823 117.133 322.623 113.067 325.556 109.2C328.49 105.333 330.89 103.4 332.756 103.4C334.623 103.4 335.556 105.667 335.556 110.2C335.556 114.733 333.956 119.4 330.756 124.2C327.556 128.867 323.49 133.2 318.556 137.2C313.756 141.067 308.356 144.267 302.356 146.8C296.49 149.333 291.356 150.6 286.956 150.6C282.556 150.6 279.156 149.6 276.756 147.6C274.49 145.467 272.556 142.667 270.956 139.2ZM372.233 128.2C382.633 128.2 392.699 124.067 402.433 115.8C406.033 112.733 408.966 109.933 411.233 107.4C413.499 104.733 415.233 103.4 416.433 103.4C418.299 103.4 419.233 105.267 419.233 109C419.233 112.733 418.233 116.933 416.233 121.6C414.233 126.133 410.899 130.6 406.233 135C394.766 145.8 379.033 151.2 359.033 151.2C343.166 151.2 332.366 145.467 326.633 134C324.633 130 323.633 124.267 323.633 116.8C323.633 109.333 325.099 101.6 328.033 93.6C330.966 85.4667 334.833 78.4667 339.633 72.6C344.566 66.7333 350.233 62.2 356.633 59C363.033 55.6667 369.833 54 377.033 54C384.366 54 389.966 55.8 393.833 59.4C397.833 63 399.833 67.6667 399.833 73.4C399.833 79.1333 398.366 83.8667 395.433 87.6C392.633 91.2 388.966 94.2667 384.433 96.8C379.899 99.2 374.833 101.4 369.233 103.4C363.766 105.267 358.366 107.4 353.033 109.8V114.8C353.166 119.6 355.166 123 359.033 125C362.899 127 367.299 128.067 372.233 128.2ZM368.833 71.8C361.899 71.8 357.099 79.8667 354.433 96C357.233 94.1333 359.833 92.4667 362.233 91C364.766 89.5333 366.966 88.1333 368.833 86.8C372.833 83.8667 374.899 80.5333 375.033 76.8C375.033 73.4667 372.966 71.8 368.833 71.8ZM426.027 56C416.16 51.7333 411.227 47.6 411.227 43.6C411.227 41.4667 412.093 40.4667 413.827 40.6C416.227 40.6 418.96 41.2 422.027 42.4C425.093 43.4667 428.227 44.3333 431.427 45C442.36 24.3333 454.76 10.8 468.627 4.39999C473.293 2.26666 477.96 1.13333 482.627 0.999987C491.827 0.999987 498.827 3.26666 503.627 7.79999C508.56 12.2 511.027 17.6 511.027 24C511.027 35.4667 504.827 44.3333 492.427 50.6C482.293 55.6667 468.493 58.8 451.027 60C444.76 75.4667 441.627 92.0667 441.627 109.8C441.627 123 444.693 130.667 450.827 132.8C455.093 134.267 458.293 134.333 460.427 133C462.56 131.533 464.227 129.667 465.427 127.4C466.627 125 467.227 121.533 467.227 117C467.36 112.467 466.093 108.667 463.427 105.6C460.893 102.4 458.427 99.4667 456.027 96.8C457.227 92.4 458.96 88.7333 461.227 85.8C465.493 80.0667 469.16 77.2 472.227 77.2C475.293 77.2 477.76 78.2667 479.627 80.4C481.627 82.5333 483.227 85.2 484.427 88.4C485.627 91.6 486.56 95.0667 487.227 98.8C488.027 102.533 488.893 106 489.827 109.2C490.76 112.4 491.893 115.067 493.227 117.2C494.693 119.333 496.56 120.4 498.827 120.4C501.227 120.4 503.36 119.533 505.227 117.8C507.093 115.933 508.76 113.933 510.227 111.8C511.693 109.667 513.027 107.733 514.227 106C515.427 104.133 516.627 103.2 517.827 103.2C519.16 103.2 520.427 104.267 521.627 106.4C522.96 108.533 523.627 110.533 523.627 112.4C523.627 116.667 521.493 121.733 517.227 127.6C513.093 133.467 507.76 136.4 501.227 136.4C494.693 136.267 489.627 134.867 486.027 132.2C483.76 137.8 479.893 142.467 474.427 146.2C468.96 149.933 461.16 151.8 451.027 151.8C441.027 151.8 432.427 149.2 425.227 144C416.56 137.733 412.227 128 412.227 114.8C412.227 96 416.827 76.4 426.027 56ZM489.027 27.6C488.893 22.9333 487.16 20.6 483.827 20.6C480.627 20.6 476.427 23.0667 471.227 28C466.027 32.9333 461.027 39.8 456.227 48.6C470.76 46.0667 480.693 41.6 486.027 35.2C487.893 32.8 488.893 30.2667 489.027 27.6ZM574.747 65.6C574.747 56.6667 581.68 52.2 595.547 52.2C599.014 52.2 601.147 53.3333 601.947 55.6C602.88 57.8667 603.347 61.3333 603.347 66C603.347 72.5333 601.88 82.6667 598.947 96.4C596.014 110.133 594.614 119.4 594.747 124.2C594.747 126.467 595.48 127.6 596.947 127.6C598.947 127.6 601.414 126.333 604.347 123.8C607.28 121.267 610.214 118.533 613.147 115.6C616.08 112.533 618.747 109.733 621.147 107.2C623.68 104.667 625.414 103.4 626.347 103.4C628.214 103.4 629.147 105.667 629.147 110.2C629.147 119.533 624.547 128.533 615.347 137.2C599.88 146.267 590.08 150.8 585.947 150.8C585.547 150.8 585.214 150.733 584.947 150.6C579.88 150.6 576.28 148.933 574.147 145.6C572.147 142.267 570.88 138.067 570.347 133C567.68 137.933 564.014 142.2 559.347 145.8C554.68 149.267 549.347 151 543.347 151C532.814 151 524.68 149 518.947 145C513.347 141 510.547 135.067 510.547 127.2C510.547 123.733 511.014 120.533 511.947 117.6C513.014 114.667 514.68 111.067 516.947 106.8L522.747 57.6C526.88 54.4 532.814 52.8 540.547 52.8C546.68 52.8 550.147 56.8 550.947 64.8C551.614 71.3333 551.28 77.2 549.947 82.4C548.747 87.4667 547.08 93.9333 544.947 101.8C542.814 109.533 541.747 116.4 541.747 122.4C541.747 127.2 544.747 129.6 550.747 129.6C557.28 129.6 562.947 123.867 567.747 112.4C571.48 103.6 574.014 93.8 575.347 83C575.214 81.9333 575.08 80.6 574.947 79C574.947 77.2667 574.88 75.6 574.747 74C574.747 72.4 574.747 70.8 574.747 69.2V65.6ZM741.988 102.8C744.388 102.8 745.588 105.867 745.588 112C745.588 115.333 744.188 119.4 741.388 124.2C738.588 128.867 734.921 133.2 730.388 137.2C725.988 141.067 721.054 144.267 715.588 146.8C710.121 149.333 704.788 150.6 699.588 150.6C692.254 150.6 687.454 144.6 685.188 132.6C677.188 145.267 665.321 151.6 649.588 151.6C639.988 151.6 632.321 148.667 626.588 142.8C620.854 136.933 618.054 129.8 618.188 121.4C618.188 98.7333 625.721 80.8667 640.788 67.8C651.188 58.8667 661.988 54.4 673.188 54.4C678.254 54.4 682.254 54.8 685.188 55.6L689.788 56.8C695.254 31.0667 701.588 13.8667 708.788 5.19999C711.188 2.26666 713.588 0.79999 715.987 0.79999C719.854 0.79999 723.454 3.46666 726.788 8.79999C729.721 13.2 731.188 17 731.188 20.2C731.188 23.4 730.721 26.5333 729.788 29.6C728.854 32.6667 727.654 35.5333 726.187 38.2C724.854 40.7333 723.321 43.2667 721.588 45.8C719.854 48.2 718.121 50.6667 716.388 53.2C712.521 67.6 709.654 83.7333 707.788 101.6C707.254 106.667 706.988 110.733 706.988 113.8C706.988 123 708.521 127.6 711.588 127.6C715.054 127.6 723.454 120.667 736.788 106.8C739.188 104.133 740.921 102.8 741.988 102.8ZM647.588 114.8C647.588 125.067 651.388 130.2 658.988 130.2C663.521 130.2 668.054 128.467 672.588 125C677.254 121.533 680.854 115.733 683.388 107.6C683.654 95.6 685.054 82.4 687.588 68C676.921 70.1333 667.588 75.3333 659.588 83.6C651.588 91.8667 647.588 102.267 647.588 114.8Z" fill="white"/>
</g>
<defs>
<filter id="filter0_d_3_10" x="0" y="0.799988" width="745.588" height="165" filterUnits="userSpaceOnUse" color-interpolation-filters="sRGB">
<feFlood flood-opacity="0" result="BackgroundImageFix"/>
<feColorMatrix in="SourceAlpha" type="matrix" values="0 0 0 0 0 0 0 0 0 0 0 0 0 0 0 0 0 0 127 0" result="hardAlpha"/>
<feOffset dy="14"/>
<feComposite in2="hardAlpha" operator="out"/>
<feColorMatrix type="matrix" values="0 0 0 0 1 0 0 0 0 0.0308334 0 0 0 0 0.0308334 0 0 0 1 0"/>
<feBlend mode="normal" in2="BackgroundImageFix" result="effect1_dropShadow_3_10"/>
<feBlend mode="normal" in="SourceGraphic" in2="effect1_dropShadow_3_10" result="shape"/>
</filter>
</defs>
</svg>
